<?xml version="1.0" encoding="UTF-8"?>
<svg id="Layer_2" data-name="Layer 2" xmlns="http://www.w3.org/2000/svg" viewBox="0 0 132.21 180.73">
  <g id="Layer_1-2" data-name="Layer 1">
    <path d="m21.39,168.28c-.7,3.93-.43,7.24-1.78,10.24-.44.99-.83,2.43-2.23,2.18-1.21-.22-1.16-1.61-1.23-2.61-.25-3.67-.42-7.34-.88-11.06-.52,2.79-1.04,5.58-1.57,8.37-.27,1.41-.73,2.76-1.55,3.93-.49.69-1.17,1.41-2.11,1.12-.87-.27-.8-1.2-.8-1.95.02-2.36.07-4.72.11-7-.18-.33-.31-.33-.46-.11-.88,1.37-1.42,3.77-3.33,3.22-1.62-.47-1.07-2.8-1.07-4.34.01-2.81.24-5.63.41-9-.59.95-.86,1.47-1.21,1.94-1.16,1.55-2,1.07-2.59-.48-.62-1.63-.74-3.34-.5-5.03.34-2.43.96-4.83,1.22-7.26.15-1.39,2.02-3.27-1.09-4.14-.99-.28-.75-2.18-.52-3.42.62-3.3,1.96-6.36,3.59-9.22,4.3-7.56,7.8-15.54,12.07-23.11,2.23-3.96,5.07-7.39,9.02-9.98,4.04-2.65,7.24-6.32,10.26-10.1,1.08-1.36,1.05-2.35-.63-3.42-3.78-2.42-6.75-5.72-9.37-9.34-2.98-4.11-6.35-7.74-11.23-9.64-.63-.25-1.66-.4-1.41-1.44.2-.83,1.04-1.04,1.79-1.17.46-.08.94-.09,1.41-.07,8.2.45,16.53-.3,24.19,3.9,3.02,1.66,6.5,2.24,9.54-.48,1.36-1.22,2.29-2.79,3.06-4.39,2.22-4.6,4.46-9.21,5.19-14.34.58-4.06,2.84-7.27,5.64-9.94,8.77-8.34,16.31-17.86,25.25-26.02,2.02-1.84,4.12-3.6,6.25-5.32.61-.49,1.49-1.35,2.24-.69.95.84-.08,1.74-.53,2.47-.92,1.52-1.99,2.95-3.24,4.75,2.32-1.02,3.84-2.53,5.56-3.74,4.62-3.28,9.22-6.59,13.85-9.87.69-.49,1.45-.9,2.22-1.25.56-.26,1.24-.82,1.8-.19.66.74.02,1.39-.43,1.99-2.42,3.27-5.08,6.33-8.25,8.91-.57.46-1.13.95-1.44,1.88,1.88-1.06,3.77-2.1,5.65-3.18,3.53-2.02,7.03-4.09,10.58-6.06,1.02-.56,2.45-1.7,3.3-.65.97,1.2-.52,2.37-1.29,3.37-2.35,3.04-5.5,5.15-8.63,7.28-.76.52-1.55.99-2.09,1.97,2.85-1.3,5.7-2.6,8.55-3.89,2.07-.94,4.12-1.91,6.22-2.76.72-.29,1.7-.97,2.31-.05.54.8-.2,1.6-.66,2.3-1.27,1.95-3.14,3.27-5.07,4.45-2.9,1.77-5.88,3.4-8.8,5.33,3.76-1.01,7.51-2.08,11.29-2.99,1.37-.33,3.45-1.47,4.1.1.66,1.61-1.48,2.56-2.76,3.44-2.59,1.79-5.73,2.43-8.56,3.88,3.35,1.17,3.38,1.33.93,3.96-1.16,1.25-3.18,2.23-3.62,3.41-1.06,2.86-4.77,4.56-3.46,8.57.65,1.99-1.12,3.91-2.43,5.49-3.15,3.8-5.94,7.9-7.98,12.31-1.25,2.69-1.82,1.78-3.49.06.34,1.58.59,2.68.81,3.8.44,2.26.48,4.39-2.03,5.57-1.15.54-.67,1.29-.44,2.12.49,1.73.11,3.2-1.56,4.11-.89.49-1.55,1.03-1.35,2.19.06.35.02.84-.18,1.1-2.6,3.4-3.47,7.73-6.03,11.12-.77,1.03-1.04,2.2-1.67,3.24-.49.81-1.04,1.84-2.02,1.8-1.22-.05-.37-1.57-1.07-2.3-1.22,2.57-.31,4.29,1.83,5.47,2.65,1.47,5.47,2.55,8.3,3.63,5.8,2.21,11.71,4.14,16.4,8.66,3.66,3.52,4.66,8.04,5.95,12.53.29.99.28,2.06.44,3.09.51,3.18-.74,5.26-3.47,6.93-6.63,4.06-12.79,1.44-18.61-1.53-5.68-2.9-9.85-7.87-14.18-12.48-1.84-1.96-3.77-3.62-6.41-4.46-1.16-.37-2.19-.4-2.72.6-1.17,2.19-4.33,3.07-4.07,6.18,0,.09-.03.24-.09.26-2.65,1.2-3.42,4.39-5.93,5.64-.88.44-1.37.71-1.42,1.72-.13,2.77-1.82,3.49-4.27,3.09-1.27-.21-2.62-.79-3.35.92.97.85,3.17-.38,3.24,1.76.05,1.37-3.37,3.28-4.97,2.9-.99-.23-1.93-.92-2.92.11.52.95,2.29.87,2.17,2.22-.12,1.34-1.77.92-2.41,1.6-1.9,2.01-3.73,4.1-5.41,6.29-1.18,1.53-1.69,3.71-4.23,3.66-.22,0-.51.26-.66.48-2.87,4.05-7.4,6.47-10.32,10.39-1.36,1.83-1.76,4.35-3.04,6.36-.97,1.52-1.84,3.08-3.65.11Z"/>
  </g>
</svg>