<?xml version="1.0" encoding="UTF-8"?>
<svg id="Layer_2" data-name="Layer 2" xmlns="http://www.w3.org/2000/svg" viewBox="0 0 94.11 65.77">
  <g id="Layer_1-2" data-name="Layer 1">
    <path d="m85.48,1.02c-1.01.82-2.03,1.64-3.04,2.46.06.2.12.4.18.59,3.27-1,6.54-2,10.57-3.23-1.91,2.8-4.39,3.16-6.57,4.73,2.68.8,5.07-1.38,7.49-.21-1,2.49-3.68,1.39-5.14,2.71.12,1.74,2.06,0,2.3,1.57-4.85,4.75-7.37,11.81-13.17,16.31-1.65,1.28-2.88,3.07-4.67,4.31-2.39,1.66-4.57,2.68-6.97-.35-1.44,2.75,3.76,8.5-5.05,6.75,2.72,2.07,4.51,1.58,6.01,1.4,8.65-1.04,12.03,7.03,9.18,14.4-2.45,6.35-7.9,8.55-14.19,8.59-5.76.03-10.14-2.84-13.27-7.68-.79-1.22-.25-2.22.12-3.29.62-1.79,1.27-3.57,1.55-5.7-1.21,3.02-2.83,4.6-6.04,2.96-.71-.36-1.78-.38-1.79.86,0,3.23-3.04,4.2-4.84,4.94-7.84,3.24-15.07,8.04-23.45,9.77-2.09.43-2.75,2.23-4.55,2.61-1.38-.9.51-2.03-.16-3.06-.82-.35-1.04.43-1.4.89-1.9,2.4-1.82,2.23-4.49,1.18-.84-.33-2.17.61-4.07,1.23,2.03-2.99,3.6-5.29,5.33-7.83-1.87-.47-2.67,1.38-4.07,1.37-.07-.28-.29-.7-.18-.82,5.24-5.93,10.59-11.77,15.75-17.77,4.41-5.12,9.98-8.08,16.4-9.78,3.45-.92,5.7-2.54,2.18-6.09-1.38-1.39-1.52-3.15-.46-4.53,1.29-1.69,3.04-1.2,4.91-.39,7.28,3.15,8.19,3.21,13.27-2.79,6.22-7.36,14.6-10.38,23.26-13.25,2.92-.97,5.62-2.58,8.42-3.89.23.34.45.68.68,1.02Z"/>
  </g>
</svg>