<?xml version="1.0" encoding="UTF-8"?>
<svg id="Layer_2" data-name="Layer 2" xmlns="http://www.w3.org/2000/svg" viewBox="0 0 128.5 137.36">
  <g id="Layer_1-2" data-name="Layer 1">
    <path d="m47.04,113.66c.15.8.48,1.57.28,2.41-.29,1.14-3.04,2.78-4.18,2.51-.68-.17-.85-.75-1.03-1.3-.23-.7-.28-1.45-.82-2.15-.48.67-.47,1.41-.55,2.09-.38,3.11-2.28,4.79-5.23,5.61-1.24.35-2.62,1.18-3.75,2.07-.63.5-1.06,1.11-1.71.06-.45-.74-.74.19-1.16.18-.49-1.31-1.62-1.89-2.88-2.47.21,1.01.59,1.86.68,2.79.05.59-.1,1.04-.49,1.49-.47.54-.74.31-1.15-.36-.02.85-.31,1.33-.83,1.72-1.24.94-1.96.84-2.46-.6-.32-.93-1.03-1.4-1.6-2.13-.08.19-.15.26-.14.31.18,1.05,1.31,1.97.76,3.07-.94,1.86-1.84,3.79-3.69,5.01-.41.27-.89.54-1.3.32-.5-.28-.24-.85-.12-1.27.54-1.92,1.24-3.78,2.02-5.61.27-.64.51-1.29.54-2.09-.38.53-.77,1.04-1.13,1.58-1.61,2.43-3.05,5-4.9,7.24-.67.81-1.36,1.87-2.47,2.37-.41.18-.85.45-1.21.24-.43-.26-.21-.78-.1-1.18.68-2.55,1.85-4.88,3.07-7.2.1-.2.19-.41.41-.9-.71.52-.93,1.04-1.23,1.49-.33.48-.66.97-.98,1.46-1.03,1.6-2.25,3.06-3.37,4.59-.58.8-1.39,1.58-2.35,2.09-.36.19-.73.41-1.09.17-.34-.23-.18-.65-.13-.98.12-.86.57-1.66.54-2.91-.58,1.26-1.55,1.67-2.28,2.33-.21.19-.51.47-.81.28-.28-.18-.22-.55-.19-.87.24-2.2.99-4.25,1.96-6.22.22-.44.49-.87.48-1.48-.52.39-.94.72-1.38,1.02-.22.16-.49.34-.75.2-.29-.16-.17-.49-.14-.75.12-1.45.48-2.84,1.03-4.19,1.31-3.2,3.15-6.1,5.16-8.89.56-.77.93-1.58,1.2-2.5.91-3.13,2.91-5.57,5.18-7.82,2.42-2.39,5.26-4.18,8.33-5.57,6.64-3,12.74-6.92,18.7-11.05,3.78-2.61,7.67-5.11,11.02-8.3,1.02-.97,2.01-1.97,2.95-3.01,1.08-1.2,1.38-2.68,1.28-4.26-.11-1.71-.22-3.43-.36-5.14-.14-1.73-1.32-3.05-1.9-4.62-.56-1.5-1.14-2.96-1.33-4.57-.21-1.79-1.26-3.26-2.13-4.78-.76-1.31-1.63-2.56-2.54-3.98,1.34.01,2.3.59,3.22,1.2,1.76,1.16,3.58,2.18,5.54,2.97.22.09.4.16.65.19,1.82.2,3.27,1.04,4.5,2.43,1.22,1.38,2.71,2.55,4.34,3.35,2.34,1.15,4.25.93,6.64-1.7,2.4-2.64,4.35-5.63,6.12-8.7,3.02-5.23,6-10.5,8.76-15.88,1.81-3.53,3.19-7.28,4.81-10.92,2.04-4.59,4.94-8.49,9.19-11.28.79-.52,1.61-1.05,2.52-1.21,1.23-.22,2.11-.93,3.03-1.65,2.8-2.21,5.79-4.11,9.09-5.49,1.05-.44,2.15-.72,3.27-.86.35-.04.81-.32,1.02.38.18.61.61.06.81-.05,1.52-.81,3.08-1.51,4.78-1.87.37-.08.79-.28,1.07.13.27.4-.05.74-.22,1.08-.75,1.41-2.02,2.35-3.12,3.52.73-.34,1.45-.67,2.18-1.01.89-.41,1.81-.73,2.75-.98.71-.19.86.25.74.75-.14.6-.44,1.19-.88,1.64-1.42,1.45-2.8,2.94-4.53,4.04-.34.22-.7.46-.93.93,1.57-.73,3.07-1.43,4.59-2.11.39-.17.81-.29,1.22-.39.26-.06.72,0,.5.35-.37.56-.04,1.24-.54,1.78-1.53,1.64-3.09,3.24-4.92,4.56-1.74,1.25-3.4,2.59-5.05,3.96.85-.07,1.49-.61,2.22-.93,1.68-.73,3.34-1.51,5.02-2.24.38-.16.87-.39,1.21,0,.37.42.06.88-.14,1.3-1.03,2.09-2.83,3.38-4.74,4.54-.67.41-1.37.1-2.04-.07-.52-.13-1-.43-1.68-.34.76.99,1.73,1.45,2.89,1.63-.34.46-.94.51-1.17,1.05.85-.08,1.9-.73,2.41.04.44.66-.65,1.27-.92,1.95-.77,1.92-2.16,2.25-4.21,1.51.67,1.11,1.41,1.51,2.31,1.6.01.58-1.5,1.28.19,1.59.22.04.13.28.04.37-.59.56-.69,1.74-1.94,1.47.15.49.68.34.88.61-.18.75-.82.88-1.53,1.11.63.29.68.54.15.95-2.08,1.58-3.73,1.72-6.01.42-.27-.15-.54-.31-.83-.47.13,1.47,1.03,2.35,2.37,2.29,1.23-.06,2.26.67,3.45.81.36.04.8.6.4,1.21-.69,1.08-1.23,2.27-2.26,3.08-.3.24-.34.47-.34.8.01,2.73-2.78,5.97-5.84,4.5-.72-.34-1.43-.3-2.09.29.47.57.9,1.02,1.71,1.24,2.06.56,2.9,2.98,1.74,4.72-.39.58-.83,1.13-1.31,1.64-.33.35-.5.77-.42,1.17.35,1.71-.62,2.87-1.64,3.98-.43.46-.5,1.02-.71,1.52-.58,1.34-1.5,2.44-2.32,3.61-.11.15-.33.4-.42.37-1.68-.51-1.33,1.27-2.05,1.83-.69.54-1.2,1.31-1.82,1.94-.54.55-1.12,1.04-1.41,1.8-.3.78-1.09,1.15-1.65,1.71-.42.43-.48-.07-.61-.29-.51-.89-.68-1.89-.99-3.09-.64,1.2-1.16,2.27-.97,3.45.32,1.95-.36,3.39-1.84,4.61-.5.42-.61.02-.79-.22-.53-.68-.86-1.47-1.13-2.51-.37.68-.28,1.15-.12,1.66.31.99.36,2.01-.05,2.98-.43.99-.17,1.46.87,1.77,3.77,1.15,7.67,1.82,11.36,3.24,2.18.84,4.49,1.35,6.54,2.53.3.17.62.35.87.58.41.37.41.78-.17.93-.57.15-.84.71-1.43.87-.5.13-.16.45.02.7.37.52.9.99.79,1.76-.6.1-1.01-.24-1.45-.61-.02.5.49.63.54,1.18-.69-.39-1.51-.1-1.98-.73-.29.81-.06,1.57.01,2.33.03.32-.36.58-.74.6-.19.01-.39-.06-.58-.06-1.79.05-2.21.83-1.29,2.36-1.64.39-3.33,1.33-4.09.22,1,.48.59,2.28.76,3.89-.29.16-.62-.02-.96-.09-1.86-.41-2.13-.26-2.04,1.51.04.67-.24,1.28-.07,1.99.15.62-.53.44-.93.31-.7-.23-1.17-.1-1.11.75.06.99-.36,1.05-1.1.64-.3-.17-.63-.29-1.03-.47.17.67-.03,1.25.21,1.89.11.3-.35,1.1-.53,1.68-.08.24-.49,0-.72-.12-.76-.42-1.42-.7-2,.34-.33.58-.77.31-1.21-.14-2.16-2.25-3.28-5.09-4.46-7.88-1.16-2.77-2.21-5.58-3.28-8.38-.37-.97-.81-1.47-2-1.1-.74.23-1.51.44-2.31.66.37.47,1.04.36,1.43.78-.82,1.14-2.07,1.61-3.28,2.11-.47.19-.81.34-.33.87.13.14.26.46.08.51-1.36.33-1.38,1.94-2.5,2.51-1.27.66-2.52.56-3.86.26-1.86-.43-3.36.05-4.83,1.42,1.06-.2,1.99-.38,2.91-.56,1.47-.29,2.57.39,3.54,1.35.37.37.44.62-.24.87-.85.32-1.21,1.35-2.06,1.75-1.65.76-2.69,2.28-4.08,3.37-.91.73-1.82.72-2.82.72-.12.4.19.67.25.99.06.29.11.67-.22.67-1.47,0-2.2,1.47-3.57,1.74-.88.17-1.62-.02-2.36-.35-1.56-.7-2.24-.75-4.25-.15,1.11.42,2.19.57,3.09,1.17.35.23.85.42.81.9-.03.37-.53.41-.83.55-.84.38-1.67.82-2.55,1.04-.9.22-1.41-.66-2.08-1.06-.22-.13-.28-.48-.61-.49-.38-1.03-1.17-1.61-2.17-1.95,1.01.33,1.75.96,2.19,1.93Z"/>
  </g>
</svg>