<?xml version="1.0" encoding="UTF-8"?>
<svg id="Layer_2" data-name="Layer 2" xmlns="http://www.w3.org/2000/svg" viewBox="0 0 122.44 120.68">
  <g id="Layer_1-2" data-name="Layer 1">
    <path d="m118.43,100.1c-.21-.87-.12-1.81-.63-2.62-.08-.13-.12-.47-.06-.5,1.21-.65.76-1.89.78-2.77.03-1.35.25-2.45,1.06-3.56.45-.62.77-1.58-.15-2.35-.4-.34-.01-.66.37-.76,1.52-.41,1.75-1.68,1.95-2.94.08-.52-.1-1.01-.52-1.36-.43-.36-.66-.85-.9-1.34-.18-.38-.08-.58.34-.5.9.17,1.29-.43,1.49-1.09.28-.88.55-1.77-.31-2.61-1.3-1.27-2.93-1.69-4.61-1.97-2.03-.34-4.13-.23-6.08-1.03-1.13-.47-2.27-.92-3.03-2.02.38.26.77.51,1.14.78,1.73,1.24,3.56,1.87,5.71,1.11,1.04-.37,2.15-.43,3.11-1.14,1.09-.82,1.46-1.42,1.12-2.82-.04-.18.02-.21.08-.33.57-1.19.11-1.97-1.2-2.02-1.56-.07-2.98.54-4.43.99-2.5.77-5.06,1.25-7.58,1.94-.63.17-.81-.02-.94-.62-.16-.75.22-.6.7-.62.74-.04,1.4-1,1.12-1.8-.36-1.03-.21-1.71.65-2.43.77-.65.66-1.6.12-2.38-.57-.82-.35-1.47.21-2.13.81-.95.94-1.89.24-2.95-.38-.58-.51-1.08-.16-1.7.58-1.01.3-2.07-.01-3.03-.21-.64-.2-1.14,0-1.74.51-1.54.08-2.94-.84-4.19-.37-.5-.52-.98-.49-1.6.11-2.65-.48-3.35-3.07-3.68-.9-.12-.58-.7-.38-1.11,1.05-2.13.93-2.72-.69-4.6-.56-.65-1.16-1.31-.99-2.4.1-.61-.2-1.42-.59-1.93-.67-.88-.97-2.06-2.19-2.57-.68-.28-.8-1.23-1.13-1.88-.23-.44-.47-.79-.84-1.09-.29-.24-.87-.39-.41-.97.03-.04-.06-.26-.1-.26-.98,0-.91-1.24-1.74-1.44-.29-.07-.52-.4-.46-.68.29-1.21-.6-1.71-1.37-2.2-.85-.54-1.19-1.27-1.14-2.19.05-.87-.39-1.12-1.11-1.04-.7.07-1.23.26-1.16-.89.03-.59-.23-1.29-.27-1.96-.02-.44-.5-.47-.83-.57-.74-.22-1.09-.67-.91-1.46.24-1.04-.48-1.72-1.01-2.41-.38-.5-.71-.02-.87.35-.45,1.03-.85,2.07-1.33,3.27-.18-1.92-.37-3.67-.5-5.44-.05-.61-.14-1.05-.74-1.43-.66-.42-1.09-1.11-1.22-1.96-.13-.83-.18-2.03-1.26-1.98-.94.04-.85,1.23-.97,1.97-.43,2.68-.79,5.38-1.18,8.06-.11.78-.26,1.56-.96,2.21-.47-1.02-.28-2.06-.47-3.02-.66-3.25-1.14-6.56-3-9.44-.33-.51-.64-1.13-1.32-.13.16-1.08-.77-2.34-1.69-2.49-.82-.14-.94.42-.89.99.11,1.19.21,2.39.46,3.55.71,3.26.98,6.59,1.48,9.88.05.35.13.72-.19,1.09-.33-.36-.31-.8-.38-1.21-.46-2.88-1.57-5.56-2.75-8.19-.61-1.35-1.12-2.84-2.19-3.9-.76-.75-1.06-2.12-2.49-2.08-.03,0-.07-.03-.09-.06-.24-.38-.44-.99-1.03-.55-.53.39-.27,1-.16,1.52,1,4.83,2.74,9.44,4.14,14.16.47,1.58.8,3.19,1.06,4.84-.72-2.21-1.93-4.16-3.03-6.16-1.54-2.81-3.57-5.26-5.92-7.43-.44-.4-1.01-.68-1.54-.97-.46-.25-.76-.06-.88.44-.1.41,0,.8.16,1.17,1.36,3.31,2.74,6.62,4.7,9.64.95,1.45,1.48,3.14,2.51,4.56.19.26.36.64.04.88-.3.22-.5-.16-.74-.29-.22-.12-.41-.31-.64-.41-.38-.17-.68-.81-1.08-.54-.46.31-.19.95-.09,1.42.38,1.8,1.44,3.24,2.62,4.57,1.48,1.68,2.83,3.49,4.77,4.71.63.4.91,1.02,1,1.82.23,2.17,1.42,3.89,3.09,5.18,1.49,1.15,2.28,2.4,2.5,4.39.3,2.75-.04,5.4-.41,8.07-.2,1.43-.69,1.7-2.04,1.18-1.95-.76-3.83-1.71-5.77-2.51-2.32-.95-4.66-1.38-7.21-.77-1.33.32-2.8.14-4.2.07-1.5-.08-2.97-.14-4.39.43-.44.18-.98.36-.97.9,0,.5.57.58.96.74,2.01.81,4.13,1.35,5.84,2.79.95.81,1.77,1.76,2.41,2.78.89,1.44,1.72,2.91,3,4.04,1.52,1.34,1.99,3.23,2.72,4.99.54,1.29.25,2.57-.69,3.42-3.17,2.86-6.18,5.91-9.98,8.01-2.13,1.18-4.43,1.78-6.76,2.29-2.86.62-5.52,1.74-8.07,3.13-.67.37-1.32.81-1.76,1.43-.85,1.21-2.09,1.7-3.44,2.08-4.39,1.22-8.91,1.59-13.41,2.03-.54.05-1.08.12-1.61.22-.29.06-.76,0-.77.43-.01.38.43.48.71.56,2.01.55,4.06.73,6.13.44.35-.05.71-.08,1.08-.04-2.84.91-5.7,1.72-8.62,2.31-4.04.82-8.11,1.09-12.22.82-.11,0-.22-.04-.32-.02-.44.06-1.08-.25-1.25.29-.14.46.51.63.83.88,2.57,1.95,5.57,2.34,8.66,2.18,2.98-.16,5.89-.76,8.61-2.08.16-.08.34-.12.52-.15.09-.02.2.03.32.04-.18.45-.6.54-.93.71-5.87,3.04-12.06,5.11-18.55,6.31-1,.18-1.99.41-2.98.64-.31.07-.68.18-.66.6.02.35.38.33.59.48,1.03.71,2.18,1.02,3.4,1.16,1.36.16,2.14-.61,2.71-1.75.07.12.13.17.12.2q-.43,1.65,1.29,1.52c4.08-.31,7.88-1.49,11.44-3.51.25-.14.53-.24.79-.34.05-.02.13.02.31.06-.67.79-1.49,1.29-2.29,1.8-4.41,2.84-9.2,4.9-14.05,6.85-.63.25-1.55.49-1.51,1.2.04.81,1.06.72,1.68.87.72.17,1.54.66,2.2-.2.06-.08.17-.19.25-.03.55,1.1.97.44,1.41-.09.03-.04.1-.3.17-.09.37,1.21,1.16.36,1.63.25,3.33-.76,6.52-1.94,9.52-3.61.25-.14.53-.24.8-.34.1-.04.21-.02.43-.04-.19.59-.59.94-.96,1.3-2.98,2.87-6.23,5.42-9.44,8.02-.45.37-.92.72-1.12,1.3-.21.61-.07,1.08.67.9.7-.17,1.71.08,1.72-1.22.34.38.09.78.48,1.07.29-.58.71-.55,1.35-.63,1.38-.17,2.82-.61,4.03-1.58,1.11-.88,2.48-1.42,4.08-1.85-.78,1.24-1.68,2.07-2.5,2.97-.56.61-1.26,1.21-.84,2.16.25.55,1.96.61,2.76.15.15-.09.27-.24.37-.38.17-.25.28-.51.32.06.02.26.3.24.41.1.78-1.03,2.16-.89,3.12-1.63.92-.71,1.43-1.5,1.54-2.6.1-.97.15-1.94.34-2.92.54,1.33,1.18,2.61.97,4.14-.08.55-.86,1.41.42,1.73.2.05-.1.35-.19.53-.21.45-.32.93.06,1.32.38.38.88.32,1.32.09.34-.19.72-.27,1.02-.57.53-.52,1.19-.64,1.9-.41.88.28,1.58.22,2.38-.47.39-.34,1.18-.68,1.89-.74.15.4-1.14,1.07.24,1.14-.11.35-.18.69.07,1.03.25.33.61.44.96.39,1.42-.23,2.89-.27,4.08-1.27.6-.51,1.9-.34,2.36.31.47.67.86,1.09,1.36.05.08-.17.22-.35.42-.23,1.33.86,2.18-.17,3.05-.83.6-.47,1.03-.69,1.81-.33,2.36,1.08,4.63.05,5.66-2.46.13-.32.1-.72.42-.96,1.43,2.26,3.68,2.48,5.63.51.56-.56,1.05-.86,1.89-.68.98.22,2.19,0,2.8-.54.81-.72,2.37-1.12,2.06-2.77-.08-.41.15-.65.58-.34,1.4.99,2.48.19,3.48-.68.71-.62,1.32-1.36,1.62-2.28.18-.56.44-.6.97-.4,1.44.52,2.07.27,2.98-.94.61-.81,1.32-1.55,1.65-2.54.15-.44.46-.52.86-.41,1.56.42,2.34-.63,3.1-1.66.41-.56.3-.71-.89-1.61.24-.25.55-.2.81-.13.82.24,1.07-.17,1.07-.88,0-1.19.83-.41,1.25-.52.54-.14.87.09.8.77-.21,2.02-.39,4.04-.54,6.06-.11,1.41-.14,2.83.14,4.22.23,1.13,1.26,1.58,2.23,1.04.12-.06.27-.21.27-.32.02-1.47.86-2.83.57-4.51.52.33.62.8.88,1.14.1.13.24.33.38.34.28.02.29-.27.34-.47.28-1,.08-2.08.52-3.09.31,1.86.77,3.67,1.25,5.48.23.87.48,1.72,1.32,2.29.9.62,1.94.46,2.45-.55.36-.69.8-1.37.79-2.18.5-.06.52.29.56.55.12.92.43,1.72,1.48,1.82.99.09,1.68-.65,1.94-1.91.08-.39.15-.78.26-1.16.1-.34-.13-.72.15-1.05.35.15.41.51.56.78.39.72.91,1.3,1.79,1.13.81-.16,1.43-.65,1.67-1.5.28-1,1.07-1.94.38-3.12.62.7,1.18,1.44,2.17,1.08,1.17-.43,1.66-1.26,1.67-2.6,0-.9.22-1.76-.21-2.62-.15-.29-.06-.69.23-.88.33-.22.52.15.7.35.7.77,1.64,1.2,2.54,1.64,1.37.68,2.39.45,3.54-.63l.28-1.05Z"/>
  </g>
</svg>