<?xml version="1.0" encoding="UTF-8"?>
<svg id="Layer_2" data-name="Layer 2" xmlns="http://www.w3.org/2000/svg" viewBox="0 0 118.36 144.67">
  <g id="Layer_1-2" data-name="Layer 1">
    <path d="m94.33,5.68c.85,3.46-.6,6.29-2.25,10.63,6.13-5.52,9.49-11.63,15.3-16.31.02,5.84-4,9.03-5.77,13.48,4.34-3.63,8.67-7.27,13.62-11.42.2,5-3.22,7.05-5.5,10.81,3.17-1.68,5.61-2.98,7.88-4.18,1.1.79.78,1.49.38,1.95-5.96,6.93-5.97,15.61-7.7,23.95-1.98,9.55-5.38,18.83-8.63,28.07-1.66,4.73-2.23,10.27-7.74,13.05-.93.47-.51,3.64-.71,5.6,2.06.61,3.69-.55,5.41-.9,8.28-1.67,11.01,1.12,10.54,9.39-.3,5.31,1.2,11.18-1.13,15.81-1.76,3.5-2.49,7.85-5.97,10.6-3.9,3.08-7.98,5.98-12.9,6.57-4.39.52-9.36,1.75-13.16-1.59-2.97-2.61-2.5-6.64-2.54-10.32-.01-1.25,1.55-3.25-.86-3.7-2.23-.42-3.21,1.02-3.42,3.24-.38,4.19-4.76,4.97-7.03,7.6-5.01,5.8-12.79,7.9-19.05,12.07-5.06,3.36-11.17,3.58-16.14,6.72-3.34,2.11-2.82-2.58-5.33-2.29.17,1.62-1.14,3.02-2.08,4.67-1.67,2.92-3.67-1.41-5.01.85-1.09,1.84-2.65,3.31-5.1,4.64-.26-5.3,3.45-8.53,4.72-13.49-3.88,3.41-5.72,8.26-11.18,9.88,1.22-4.8,4.61-7.57,6.42-12.1-3.28,1.28-5.11,4.54-9.41,4.01,4.39-5.02,8.34-9.54,12.68-14.5-3.05,1.05-5.19,3.52-8.29,2.25.03-1.73,1.69-1.78,2.58-2.58,2.42-2.17,5.17-3.45,6.7-7.18.97-2.35,6.3-3.63,9.14-6.23.62-.57,2.07-1.17.66-2.21-4.2-3.08-.12-3.35,1.47-4.06,8.26-3.68,15.93-8.18,22.34-14.69,4.04-4.1,3.93-6.76-1.04-9.83-3.84-2.37-8.04-3.92-12.69-4.62,5.98-3.56,11.87-6.88,19.32-4.99,8.21,2.08,9.19,1.31,12.64-6.65,3.46-7.97,4.99-16.51,7.85-24.63.67-1.89.29-6.59,4.92-3.26.72.52,1.25-.77,1.61-1.49.52-1.04,1.14-2.05,1.5-3.14,2.54-7.64,10.27-11.79,12.94-19.45Z"/>
  </g>
</svg>