<?xml version="1.0" encoding="UTF-8"?>
<svg id="Layer_2" data-name="Layer 2" xmlns="http://www.w3.org/2000/svg" viewBox="0 0 104.37 117.19">
  <g id="Layer_1-2" data-name="Layer 1">
    <path d="m50.22,18.96c.5-1.09.99-2.13,1.45-3.19.84-1.95,1.62-3.93,1.91-6.03.31-2.28.53-4.59-.03-6.87-.21-.86-.52-1.71-1.04-2.45-.42-.6-.76-.55-1.01.13-.25.68-.34,1.4-.46,2.11-.77,4.49-1.95,8.88-3.59,13.13-.09.23-.13.5-.51.52.16-.85.33-1.69.49-2.52.32-1.64.32-3.3.28-4.96-.03-1.39-.32-2.7-.8-3.98-.14-.37-.33-.71-.6-1-.11-.12-.22-.3-.42-.24-.2.06-.27.25-.3.44-.19,1.03-.39,2.06-.57,3.1-.66,3.8-1.52,7.56-2.48,11.3-.4,1.56-.77,3.14-1.24,4.68-.07.25-.12.52-.49.64.07-.42.14-.8.2-1.17.23-1.4.26-2.8.09-4.21-.07-.54-.09-1.09-.24-1.62-.06-.21,0-.5-.36-.5-.12,0-.1-.08-.07-.16.21-.72-.25-1.28-.45-1.9-.03-.08-.1-.17-.22-.15-.15.03-.18.17-.22.28-.31.82-.55,1.67-.71,2.53-.67,3.67-1.22,7.36-1.41,11.09-.07,1.31-.05,2.63.03,3.95.07,1.14.03,2.29-.48,3.36-.54,1.12-.84,2.33-1.22,3.51-.11.33-.17.67-.13,1.02.44,4.34-.61,8.45-2.1,12.45-.67,1.79-2.38,3.13-4.74,2.81-1.47-.2-2.86-.53-4.08-1.42-.08-.05-.16-.11-.25-.14-1.29-.44-2.57-.88-3.86-1.3-.21-.07-.44-.06-.65.02-.7.26-1.4.52-2.08.82-.3.13-.54.19-.83,0-.31-.21-.69-.22-1.03-.29-1.91-.36-3.8-.81-5.76-.76-.43.01-.84.07-1.26.16-.22.05-.42.12-.61.25-.48.33-.48.54,0,.86,1.5,1,3.13,1.8,4.56,2.91.92.71,1.84,1.42,2.75,2.14.21.16.42.35.55.57.69,1.12,1.8,1.76,2.82,2.5.59.43,1.11.97,1.78,1.29.25.12.49.26.76.36.5.18.98.41,1.4.76.95.78,2.03,1.36,3.07,1.99.66.4.79.68.44,1.41-.56,1.19-1.22,2.34-1.98,3.41-1.1,1.54-2.29,3.02-3.52,4.46-.69.8-1.5,1.47-2.26,2.19-.9.85-1.83,1.69-2.48,2.75-.8,1.31-1.66,2.59-2.29,3.99-.47,1.04-1.13,1.95-1.85,2.82-.98,1.18-1.89,2.42-2.88,3.6-2.25,2.68-4.44,5.41-7.24,7.56-.35.27-.72.5-1.17.81.85.2,1.61.2,2.37.12.83-.1,1.45-.63,2.07-1.15.6-.5.96-1.22,1.57-1.72-1.85,3.11-3.84,6.11-6.8,8.38,2.27.33,4.29.05,5.79-1.86.18.22.05.34,0,.44-.88,1.58-1.83,3.11-3.07,4.44-.03.03-.07.07-.1.1-.15.19-.55.32-.47.52.1.24.48.1.73.11.47.02.94.03,1.41.07,1.41.13,2.55-.41,3.41-1.51.42-.54.79-1.13,1.18-1.7.1-.15.16-.34.48-.48-.22,1.1-.55,2.07-.87,3.04-.33,1-.71,1.98-1.14,2.94-.43.96-.96,1.86-1.72,2.74,1.91-.47,3.83-.51,5.23-1.97.58-.6,1.02-1.31,1.5-1.98.13-.18.2-.56.43-.46.22.09.01.42-.01.64-.26,1.97-.68,3.92-1.03,5.88-.07.37-.08.75-.11,1.12-.03.41.16.56.55.39,2.09-.92,3.8-2.24,4.69-4.44.32-.79.58-1.59.85-2.39.06-.16.11-.33.18-.48.05-.11.14-.23.28-.21.16.02.15.18.17.3.32,2.03.64,4.05.97,6.08.05.31.11.62.2.92.14.54.38.69.85.4,1.28-.79,2.4-1.73,2.79-3.28.08-.3.15-.61.24-.91.05-.15.14-.3.31-.32.17-.02.22.15.3.26.53.75,1.24.84,1.96.2.95-.84,1.87-1.72,2.4-2.91.16-.36.36-.46.76-.23.75.42,1.45.13,2.1-.32.95-.66,1.66-1.57,2.47-2.37.33-.33.63-.57,1.14-.44.7.17,1.32-.16,1.84-.55.97-.74,1.93-1.52,2.22-2.82.1-.46.31-.51.72-.26.69.42,1.68.32,2.33-.18.96-.73,1.47-1.79,2.05-2.78.28-.47.59-.7,1.14-.72.87-.03,1.68-.31,2.44-.77.63-.38.97-.97,1.25-1.6.32-.72.77-1.19,1.6-1.42,1.33-.37,2.42-1.12,2.72-2.62.05-.25.21-.42.44-.51,1.21-.52,1.93-1.41,2.09-2.73.04-.36.21-.48.57-.42.45.08.9.03,1.33-.17.73-.33.81-1.06,1.06-1.68.07-.19.09-.4.1-.6.05-.58.24-.95.84-1.27.86-.46,1.24-1.37,1.16-2.39-.03-.41-.02-.69.5-.83.46-.12.78-.54.9-1.02.24-.95.52-1.91-.06-2.86-.13-.21-.05-.4.21-.38.59.03,1.17-.02,1.76.05,2.17.24,3.59,1.83,5.32,2.84,2.15,1.26,4.32,2.49,6.44,3.79,2.7,1.65,5.6,2.87,8.49,4.12,1.86.81,3.77,1.44,5.7,2.05,1.22.38,2.35,1.03,3.52,1.56,1.15.51,2.35.85,3.61,1,.5.06,1,.14,1.48.28,1.11.32,1.98-.2,2.84-.77.04-.03.06-.09.1-.1.51-.06.56-.42.62-.83.06-.41-.03-.79-.04-1.17-.02-.55-.26-.88-.6-1.23-.19-.19-.1-.35.17-.37.2-.02.41,0,.61,0,.19.01.39.04.48.24.08.19-.11.27-.22.37-.09.08-.15.17-.05.28.11.12.23.1.33,0,.32-.32.65-.6.79-1.08.14-.47.32-.95.63-1.35.14-.18.16-.31-.03-.42-.24-.14-.2-.32-.19-.55.04-.64-.39-1.03-.85-1.36-.5-.37-1.05-.68-1.57-1.03-.4-.27-.74-.53-.37-1.14.17-.28.02-.72-.18-1.06-.63-1.1-1.72-1.55-2.79-2.05-1.89-.89-3.89-1.49-5.79-2.37-.18-.08-.38-.14-.55-.33.22-.14.44-.09.64-.06.85.14,1.69.08,2.53-.06.97-.16,1.39-.63,1.5-1.57.03-.23-.06-.38-.18-.55-.71-.93-1.76-1.15-2.82-1.34-2.7-.5-5.4-.95-8.09-1.5-4.49-.91-8.92-2.06-13.33-3.3-1.22-.34-2.45-.65-3.67-1.02-.68-.21-1.26-.55-1.75-1.05-.37-.38-.76-.72-1.33-.82.52-.16,1.06-.16,1.54-.39.39-.18.59-.45.78-.86.28-.62.4-1.35,1.16-1.71.67-.32,1.18-.93,1.74-1.42.17-.15.28-.4.41-.6.17-.25-.25-.17-.26-.42.45.02.68-.25.82-.68.12-.4.13-.77-.06-1.14-.1-.2-.02-.32.15-.43.89-.56,1.48-1.39,2-2.27.31-.52.34-1.08.03-1.61-.2-.33-.11-.51.15-.75.63-.6,1.16-1.27,1.54-2.09.35-.76.2-1.38-.28-1.95-.34-.4-.24-.61.13-.89.53-.42,1.03-.92,1.27-1.55.32-.85.37-1.76-.15-2.57-.21-.32-.17-.52.05-.78.47-.53.79-1.16.91-1.84.13-.75,0-1.51-.44-2.16-.29-.44-.31-.8,0-1.24.5-.72.68-1.55.64-2.41-.02-.49-.33-.87-.62-1.24-.15-.2-.32-.41-.53-.53-.52-.3-.44-.65-.21-1.1.36-.7.65-1.42.77-2.21.06-.37-.03-.72-.07-1.07-.02-.26-.26-.28-.44-.36-.65-.27-.63-.26-.37-.88.56-1.35.59-2.71.07-4.08-.1-.27-.31-.28-.52-.33-.75-.2-.74-.2-.71-.95.04-.77.07-1.53.1-2.3,0-.13,0-.25,0-.38-.03-.98-.32-1.28-1.29-1.33-.79-.04-.78-.04-.52-.76.3-.81.57-1.63.49-2.52-.05-.6-.34-.84-.94-.68-.6.16-1.12.47-1.66.77-.42.23-.84.48-1.36.58-.03-.24.11-.4.2-.56.4-.75.92-1.42,1.43-2.09.72-.95,1.27-1.98,1.48-3.17.04-.22.07-.42-.02-.64-.21-.5-.51-.62-.95-.29-.74.56-1.45,1.15-2.17,1.73-2.33,1.88-4.65,3.77-7.07,5.54-.25.18-.47.41-.88.49.2-.53.43-.96.7-1.37,1.22-1.81,2.4-3.64,3.35-5.61.73-1.51,1.28-3.09,1.53-4.77.06-.39-.01-.75-.08-1.12-.06-.31-.27-.54-.58-.63-.3-.09-.52.09-.69.3-.71.86-1.33,1.79-1.97,2.7-2.17,3.12-4.49,6.12-7,8.97-.13.15-.26.31-.43.43.14-.52.44-.96.67-1.42,1.06-2.04,2.24-4.03,2.86-6.27.43-1.52.68-3.06.58-4.64-.05-.71-.2-1.39-.65-1.98-.45-.58-.9-.55-1.18.13-.42,1.01-.82,2.04-1.22,3.06-1.79,4.55-4.15,8.78-7.04,12.72-.1.13-.17.3-.39.37Z"/>
  </g>
</svg>